# xmcd
#
# Track frame offsets:
#	150
#	20016
#	35931
#	57594
#	75590
#	95988
#	112666
#	130638
#	147866
#	165097
#	181869
#	202324
#	220527
#	237904
#	253545
#	273825
#	292036
#	305952
#	315183
#	331202
#
# Disc length: 4550 seconds
#
# Revision: 0
# Processed by: cddbd v1.5.2PL0 Copyright (c) Steve Scherf et al.
# Submitted via: EasyCDDAExtractor 12.0.1.1
#
DISCID=1f11c414
DTITLE=Various Artist - Soul 40 best CD2
DYEAR=2005
DGENRE=Soul
TTITLE0=The Manhatans - Kiss And Say GoodBye
TTITLE1=P. Austin and J. Ingram - Baby, Come To Me
TTITLE2=Randy Crawford - Wishing On A Star
TTITLE3=Mercedes Hall - Walk On By
TTITLE4=John Lee Hooker - Chill Out
TTITLE5=Joyce Sims - Come Into My Life
TTITLE6=Barry White - Can't Get Enough
TTITLE7=Phill Carmen - On My Way In LA
TTITLE8=Angeistone - Wish I Didn't Miss You
TTITLE9=Shola Ama - You Might Need Somebody
TTITLE10=Lisa Stansfield - Time To Make You Mine
TTITLE11=Soulstaf - Set My Soul Free
TTITLE12=Sade - Your Love Is King
TTITLE13=Alicia Keys - Fallin
TTITLE14=Tracy Chapman - Give Me One Reason
TTITLE15=P. Daddy and F. Evans - I'll Be Missing You
TTITLE16=Jack Radics - No Matter
TTITLE17=Sam Cooke - Wonderful World
TTITLE18=Nina Simone - My Baby Just Care For Me
TTITLE19=Louis Armstrong - Wonderful World
EXTD=
EXTT0=
EXTT1=
EXTT2=
EXTT3=
EXTT4=
EXTT5=
EXTT6=
EXTT7=
EXTT8=
EXTT9=
EXTT10=
EXTT11=
EXTT12=
EXTT13=
EXTT14=
EXTT15=
EXTT16=
EXTT17=
EXTT18=
EXTT19=
PLAYORDER=
